<?xml version="1.0" encoding="UTF-8"?>
<!DOCTYPE svg PUBLIC "-//W3C//DTD SVG 1.1//EN" "http://www.w3.org/Graphics/SVG/1.1/DTD/svg11.dtd">
<!-- Creator: CorelDRAW X8 -->
<svg xmlns="http://www.w3.org/2000/svg" xml:space="preserve" width="102px" height="30px" version="1.1" style="shape-rendering:geometricPrecision; text-rendering:geometricPrecision; image-rendering:optimizeQuality; fill-rule:evenodd; clip-rule:evenodd"
viewBox="0 0 102 30"
 xmlns:xlink="http://www.w3.org/1999/xlink">
 <defs>
  <style type="text/css">
   <![CDATA[
    .fil2 {fill:#FEFEFE}
    .fil0 {fill:#EF154F}
    .fil1 {fill:#FDFDFD}
   ]]>
  </style>
 </defs>
 <g id="Layer_x0020_1">
  <metadata id="CorelCorpID_0Corel-Layer"/>
  <rect class="fil0" width="102.002" height="30.0007"/>
  <g id="_260967641184">
   <path class="fil1" d="M5 22c0,0 0,0 0,0 0,0 0,-1 0,-1l1 0c-1,0 -1,0 -1,1 0,0 0,0 0,0l0 0c0,0 0,0 0,0l0 0 0 -1c1,0 0,0 1,0 0,0 5,-1 6,0 0,0 0,0 0,0 0,0 0,0 0,0 1,1 1,1 1,1 1,0 2,0 2,0 2,-1 3,-1 6,0 0,0 1,0 1,0 0,1 0,1 1,1 0,0 0,0 0,0 0,0 -3,0 -3,0 -6,1 -12,2 -18,4l-2 1c0,0 0,0 0,0l0 0c1,0 2,0 3,-1 12,-3 26,-4 38,-2 4,1 7,2 11,3 1,0 1,0 2,0 -1,0 -4,-1 -6,-2 -4,-1 -10,-2 -15,-3 -1,0 -2,0 -3,0 0,0 0,0 0,0 1,0 1,-1 2,-1 1,0 2,0 3,-1 2,0 4,1 5,1 1,0 1,0 1,-1 0,0 0,0 0,0 0,-1 0,0 1,0 1,0 5,0 6,0 0,1 0,1 1,1 -1,0 -1,0 -1,0 0,-1 0,-1 0,-1 0,0 0,0 0,1 0,0 0,0 1,0 0,-1 0,-1 0,-1 -1,0 -1,0 -1,0 0,0 -1,0 -1,0 0,-1 0,-1 0,-2 -2,0 -4,-1 -5,-1 -1,0 -1,0 -1,-1 0,0 -1,0 -2,0 0,-1 1,-1 0,-2 0,0 0,0 1,-1 0,0 0,0 0,0l2 -2c1,0 1,0 1,-1 1,0 1,0 1,0 1,0 0,0 1,0 0,-1 1,-1 1,-1 1,0 1,0 1,0 3,2 7,-1 5,-4 0,-1 -1,-2 -2,-2 -1,0 -2,0 -2,0 -1,0 -2,1 -2,2 -1,1 0,1 0,2 -1,1 -2,2 -2,2 0,0 0,0 0,0 0,1 0,0 0,0 0,0 0,0 0,0 -1,1 -3,3 -4,4 -1,0 -1,0 -1,0 0,1 0,1 -1,1 0,0 1,-1 1,-1 1,-1 1,-1 2,-1 0,0 0,-1 0,-1 1,0 2,-1 3,-1 -1,-1 0,-1 -1,0 0,0 0,0 0,0 -1,0 -1,0 -1,1 -1,0 -1,0 -2,1 0,0 -1,1 -1,1 -1,1 -1,1 -1,1 0,0 0,0 0,1 0,0 0,0 0,0 -3,0 -5,-1 -6,-2 -1,0 -1,-1 -2,-2 -2,-1 -5,-1 -6,0 -1,1 -1,1 -2,2 0,0 0,0 0,0 -2,1 -4,2 -6,2 0,0 0,0 -1,0 0,-1 0,-1 0,-1 0,0 0,0 0,-1 -1,0 -2,-1 -2,-1l-3 -2c-1,-1 0,-1 0,0 0,0 3,2 4,3 0,0 1,1 1,1 -1,-1 -1,-1 -1,-1l-4 -3c0,0 -1,-1 -1,-1 0,0 0,0 0,0 1,0 0,1 1,0 -1,0 -1,0 -1,-1 -1,0 -1,0 -1,-1 0,-1 0,-1 -1,-2 0,-1 -1,-2 -1,-2 -2,-1 -4,0 -5,2 -1,2 1,5 4,5 1,0 1,-1 2,-1 1,1 2,1 2,1l5 3c0,1 0,1 0,1 0,1 0,1 0,1 0,0 0,1 0,1 -2,0 -2,1 -2,1 -2,0 -4,1 -6,1 0,1 0,1 0,2 0,0 0,0 -1,0 0,0 0,0 0,0 -1,0 -1,1 0,1zm35 -1c0,0 0,0 1,0l-2 0 1 0zm-27 0c0,0 0,0 0,0l1 0 -1 0zm3 0c0,0 1,0 1,0 1,0 1,-1 1,-1 4,0 2,0 3,1 1,0 2,1 3,1 1,0 2,0 3,0 0,0 0,0 0,0l-1 0c0,0 0,0 0,0 -2,0 -4,0 -5,-1 0,0 -1,-1 -1,-1 -1,0 -1,1 -2,1 -1,0 -1,0 -2,0zm25 -1c2,0 3,0 5,0 -1,0 -2,0 -2,0 -1,0 -2,0 -3,0zm-34 0c2,0 3,0 5,0 -1,0 -2,0 -3,0 0,0 -1,0 -2,0zm25 -1c1,0 2,0 3,0 0,1 3,1 3,1 -1,0 -5,0 -6,-1zm-17 1c0,0 3,0 3,-1 1,0 2,0 3,0 -1,1 -5,1 -6,1zm23 -1c0,0 -1,0 -1,0 -1,0 -1,0 -2,0 -1,0 -2,-1 -2,-1l0 0c0,0 0,0 0,0l0 0c1,0 5,1 5,1zm2 2c0,-1 0,-2 1,-2 -1,0 -1,1 -1,2l0 0zm-27 -1c0,0 0,-1 0,-1 0,0 0,1 1,2l-1 -1zm3 -1c0,0 2,0 2,-1 2,0 1,0 2,0 0,0 0,0 0,0 -1,1 -4,1 -4,1zm25 -1l-1 0 0 0c1,0 1,0 1,0 0,1 0,0 0,0 0,0 0,0 0,0zm-25 -2c1,0 1,0 2,0 1,0 2,0 2,0 0,0 0,0 0,0 -1,0 -1,0 -2,0 -1,1 -1,1 -2,1 0,0 0,1 0,1 0,-1 0,-1 0,-2zm20 1c0,-1 -2,-1 -3,-1 0,0 1,0 1,0 0,0 1,0 1,0 1,0 1,0 2,0 1,0 0,1 0,1 0,0 0,0 0,0 1,1 1,0 0,1l-1 -1zm-24 1c0,0 0,0 1,0 0,0 0,0 -1,0 0,1 0,0 0,0zm14 -6c3,0 5,2 5,4 1,3 -2,5 -4,5 -3,1 -5,-1 -5,-4 0,-1 0,-2 1,-3 0,-1 2,-2 3,-2zm21 -3c0,0 1,1 1,1 1,0 1,0 1,0 -1,0 -2,0 -2,0l0 -1zm-43 1c2,0 1,0 2,-1l0 1c0,0 -1,0 -2,0l0 0zm40 0c0,0 0,0 1,-1l1 -1c0,0 0,0 1,0 -1,0 -2,2 -3,2zm-35 0c-1,0 -1,-1 -1,-1 -1,0 -1,-1 -1,-1 0,0 0,0 0,0l1 1c1,1 1,0 1,1zm43 -3c0,0 0,0 -1,-1 0,0 0,-1 0,-1 0,0 1,1 1,2zm-51 0c0,-1 1,-2 2,-2 -1,1 -1,1 -1,2l-1 0zm45 1c-1,-2 0,-3 2,-3 -1,0 -2,0 -2,3 0,0 0,0 0,0zm-39 0c0,-1 0,-2 -1,-2 0,-1 0,-1 0,-1 0,0 0,0 0,0 -1,0 0,0 -1,0 2,0 3,2 2,3 0,0 0,0 0,0l0 0z"/>
   <g>
    <path class="fil1" d="M30 17c0,2 -2,3 -4,3 -2,0 -3,-2 -3,-4 0,-2 2,-3 4,-3 2,1 3,2 3,4zm-4 -5c-2,1 -4,3 -4,5 1,3 3,4 5,4 2,0 4,-2 4,-5 0,-2 -3,-4 -5,-4z"/>
    <path class="fil1" d="M29 18c-2,1 -4,-3 -2,-4 -1,-1 -2,0 -3,1 -2,2 0,5 3,5 1,0 2,-1 2,-2z"/>
   </g>
  </g>
  <g id="_226018892096">
   <path class="fil2" d="M76 10l0 2 0 0c0,1 0,2 0,3 0,0 -1,3 -1,3 0,0 0,-4 0,-4 0,-2 -1,-3 -1,-4l-3 0c0,0 -1,8 -1,8l-1 -6 1 0 0 -2 -4 0 0 2 0 0c1,1 2,10 2,10 0,0 3,0 3,0 0,0 1,-2 1,-3 0,0 0,-1 0,-1 0,-1 0,-1 0,-1 0,-1 0,-1 0,-1 0,0 1,6 1,6l1 0 3 0 2 -10 0 0 0 -2 -3 0z"/>
   <path class="fil2" d="M83 17c0,-1 1,-4 1,-4l1 4 -2 0zm-1 -5l0 0c0,0 -2,8 -2,8l-1 0 0 2 5 0 0 -2 -1 0 0 -1 3 0 0 1 -1 0 0 2c0,0 5,0 5,0l0 -2 -1 0 -2 -10c-1,0 -5,0 -5,0l0 2z"/>
   <path class="fil2" d="M97 20c0,1 0,1 0,1l3 0 0 -4 0 0 0 -1 -4 0 0 2c0,0 0,-1 1,0 0,0 -2,1 -3,1 0,-1 -1,-2 0,-3 0,-1 0,-2 1,-3 1,0 1,0 1,1 1,0 1,0 1,1 0,0 2,0 2,0 0,-1 0,-3 0,-4l-2 0 0 1c-1,-1 -1,-1 -2,-2 -1,0 -2,0 -3,1 -1,1 -2,3 -2,5 0,1 0,2 1,3 0,1 1,1 1,2 1,0 1,1 3,1 1,-1 1,-1 2,-2 0,0 0,0 0,0z"/>
   <path class="fil2" d="M63 12c0,0 -1,-1 -2,-1 -3,-1 -5,2 -4,4 1,2 3,2 4,3 2,0 1,1 0,1 -1,0 -2,-1 -2,-2l-2 0 0 4 2 0 0 -1c0,0 1,1 2,1 2,1 4,1 4,-1 1,-2 0,-4 -2,-5 -1,0 -3,-1 -3,-1 0,-1 2,-1 2,-1 1,1 1,1 1,1 0,0 0,0 0,0l2 0 0 -4c0,0 -1,0 -2,0 0,0 0,0 0,2z"/>
  </g>
 </g>
</svg>
