<?xml version="1.0" encoding="UTF-8"?>
<!DOCTYPE svg PUBLIC "-//W3C//DTD SVG 1.1//EN" "http://www.w3.org/Graphics/SVG/1.1/DTD/svg11.dtd">
<!-- Creator: CorelDRAW X8 -->
<svg xmlns="http://www.w3.org/2000/svg" xml:space="preserve" width="30px" height="30px" version="1.1" style="shape-rendering:geometricPrecision; text-rendering:geometricPrecision; image-rendering:optimizeQuality; fill-rule:evenodd; clip-rule:evenodd"
viewBox="0 0 30 30"
 xmlns:xlink="http://www.w3.org/1999/xlink">
 <defs>
  <style type="text/css">
   <![CDATA[
    .fil1 {fill:#FEFEFE}
    .fil0 {fill:#EF154F}
   ]]>
  </style>
   <clipPath id="id0">
    <rect x="7556" y="-3785" width="4246" height="4246"/>
   </clipPath>
 </defs>
 <g id="Layer_x0020_1">
  <metadata id="CorelCorpID_0Corel-Layer"/>
  <g style="clip-path:url(#id0)">
   <image x="7556" y="-3785" width="4246" height="4246" xlink:href="swag1 (30 x 30)_Images\swag1 (30 x 30)_ImgID1.png"/>
  </g>
  <path class="fil0" d="M8044 -2591c-10,5 -2,0 -11,8 -32,32 -50,67 -134,78 -76,10 -126,-16 -169,-51 -32,-26 -67,-85 -84,-141 -21,-68 -26,-125 -25,-201 3,-132 61,-269 132,-319 54,-38 99,-54 179,-33 78,20 92,48 133,94l17 -64 130 19c9,36 3,221 3,271 -35,1 -133,5 -157,-5 -16,-48 -3,-54 -37,-96 -15,-20 -53,-42 -92,-31 -57,17 -86,90 -92,165 -6,67 8,153 61,194 61,48 169,-11 140,-73 -11,-7 -35,-3 -51,-3l0 -109 293 2 -1 94 -34 4 0 224 -176 26c-9,-15 -18,-35 -25,-53zm-2266 -575c10,-97 0,-82 43,-86 39,-4 81,-11 119,-12l-4 276 -153 2c0,-1 -2,0 -2,-1 -14,-34 -3,-48 -32,-80 -37,-43 -138,-40 -143,24 -4,61 126,83 207,121 113,53 169,161 133,286 -38,131 -175,163 -289,116 -72,-30 -104,-85 -121,-93l-8 68 -155 -25 0 -224 164 9c1,59 50,96 106,102 74,9 116,-48 37,-87 -72,-35 -218,-61 -269,-147 -97,-162 73,-342 244,-326 89,8 110,69 123,77zm1257 -139c54,-5 269,10 340,12l157 664 63 -3 -1 146c-27,14 -307,26 -356,27l2 -158 82 -3 -17 -79 -182 3 -17 82 68 -2 0 161 -283 5 -1 -161 60 -1c8,-29 118,-510 118,-535l-33 -2 0 -156zm-543 836c-8,-22 -67,-395 -74,-411 -7,14 -5,18 -11,55 -2,18 -5,35 -8,54 -6,35 -12,68 -19,103 -8,42 -26,177 -41,205 -27,0 -190,-5 -202,-17 -7,-7 -111,-587 -119,-645l-50 2 1 -146 292 -22 -2 154 -48 3 49 398c14,-23 74,-512 94,-561l184 -7c13,94 31,190 47,284 7,37 34,284 37,290 4,-7 22,-186 26,-213 8,-56 31,-154 31,-204l-47 -1 1 -160 254 0 -1 159 -48 0 -131 700 -208 -8 -7 -12zm-952 -1213c-12,18 -7,20 -27,26l-3 -1c0,7 1,5 -6,4l-21 2 -6 -7c-30,-11 -30,-52 1,-63 22,-7 26,5 48,3 11,0 33,-8 46,-10 -5,-62 -10,-50 5,-111 106,8 228,-15 335,-20 43,-54 -4,-56 126,-77 3,-24 3,-47 6,-70 3,-25 15,-27 28,-42 -5,-34 -18,-50 -39,-65l-288 -213c-9,-6 -46,-8 -131,-68 -38,20 -47,56 -129,67 -165,22 -312,-155 -215,-319 55,-91 173,-129 273,-86 39,17 82,58 100,95 37,77 18,94 18,166 17,11 49,43 66,59 51,47 19,42 60,61 -11,9 -2,6 -13,4 -16,-2 -9,-15 -32,-18 10,19 75,59 96,75l194 140c48,36 49,30 68,96 1,-44 -33,-72 -60,-92 -41,-31 -232,-179 -259,-192 11,-8 -1,-13 19,-2l191 143c32,24 76,52 99,81 20,24 19,51 28,63 6,8 21,12 27,19 9,10 7,18 11,30 143,5 270,-44 366,-107 21,-13 17,-9 32,-30 26,-35 51,-61 88,-87 106,-75 261,-71 367,1 60,41 72,86 120,117 99,63 219,110 367,106 6,-15 1,-21 14,-32 7,-7 20,-9 26,-19 12,-19 4,-36 26,-62 24,-27 68,-56 99,-79 35,-27 67,-50 102,-78 17,-13 36,-25 54,-37 9,-6 29,-27 38,-30 18,-6 1,-7 16,4 -38,17 -95,67 -133,96 -15,12 -28,21 -43,33 -27,19 -55,41 -86,64 -26,19 -57,46 -57,91 8,-24 9,-40 25,-60 12,-15 30,-27 46,-39 82,-60 215,-150 288,-209 -8,-6 -8,-3 -18,4 -11,10 -15,16 -28,6 24,-11 20,-12 31,-31 11,-20 78,-77 95,-89 2,-65 -20,-98 19,-168 24,-42 57,-74 102,-94 53,-23 114,-24 167,-2 51,21 80,50 105,92 107,185 -103,397 -291,291 -25,-14 -36,-32 -55,-42 -15,12 -74,50 -95,58 -22,9 -11,-4 -32,9 -21,14 -40,30 -60,45 -19,14 -39,25 -59,41l-117 87c-19,15 -38,29 -57,43 -20,16 -32,27 -37,63 41,49 22,11 34,111 25,5 65,9 83,21 26,18 25,28 43,57 107,5 228,28 334,20 17,62 9,49 6,111 13,3 36,10 47,11 18,1 22,-10 43,-5 38,9 27,52 5,65 -13,-4 -28,-6 -36,-13 -18,-14 -6,-29 -26,-23 14,12 9,15 23,25 14,10 18,5 33,16 -44,0 -31,-12 -52,-26 -20,-13 -283,-43 -321,-47 -67,-6 -72,-18 -105,27 8,14 11,8 17,21 -12,13 -11,18 -37,18 -113,1 -222,-28 -338,-14 -59,6 -109,23 -164,39 -76,24 -92,46 -105,50 -16,5 -26,3 -40,10 68,7 140,7 209,13 311,29 635,75 929,177 68,23 269,84 318,123 -28,-6 -64,-20 -93,-29 -220,-66 -438,-116 -670,-150 -772,-113 -1583,-83 -2337,121 -59,16 -126,44 -181,54l10 -7c4,-3 5,-2 9,-4l133 -54c344,-123 700,-198 1066,-229 30,-3 187,-10 199,-14 -13,-8 -26,-7 -39,-15 -12,-7 -14,-13 -28,-21 -21,-11 -49,-19 -74,-26 -146,-45 -205,-46 -358,-34 -31,3 -63,5 -93,8 -46,3 -55,10 -81,-16 5,-11 6,-9 17,-15 -5,-14 -21,-33 -33,-38 -28,-9 -356,43 -388,48zm-693 -170c0,287 -12,327 44,592 7,31 15,64 25,93 23,71 27,93 58,175 44,115 110,246 176,349 48,73 90,136 148,202 107,124 196,218 329,317 24,18 42,31 68,48 14,9 22,15 34,24 106,80 307,169 431,216 61,23 117,38 179,54 310,75 619,82 931,11 21,-4 31,-8 50,-12 97,-22 263,-81 353,-126 151,-76 170,-89 301,-175 118,-79 284,-232 374,-343l126 -169c65,-94 101,-164 154,-267 58,-117 121,-314 147,-445 7,-36 13,-65 18,-103 37,-264 29,-526 -38,-783 -67,-260 -145,-423 -290,-643 -57,-86 -138,-184 -213,-258l-183 -167c-110,-90 -233,-165 -360,-228 -179,-90 -331,-135 -525,-175 -33,-7 -66,-9 -101,-15 -93,-15 -412,-17 -502,-1 -74,13 -217,33 -288,58 -14,4 -30,7 -43,11 -139,43 -235,88 -364,152 -66,33 -150,90 -213,133 -83,56 -245,199 -306,269l-54 63c-9,9 -17,20 -25,29 -170,210 -276,417 -361,673 -5,16 -7,30 -12,46 -6,17 -7,23 -12,43l-32 143c-9,46 -24,162 -24,209z"/>
  <g id="_260967673888">
   <path class="fil1" d="M13 11l0 1 1 0c0,1 -1,2 -1,2 0,1 0,2 0,2 0,0 0,-2 0,-2 0,-1 -1,-2 -1,-3l-1 0c-1,1 -1,5 -1,5l-1 -3 1 0 0 -2 -3 0 0 2 0 0c1,0 2,6 2,6 0,0 1,0 1,0 1,0 1,-2 1,-2 0,0 0,-1 0,-1 0,0 0,0 0,0 0,-1 0,-1 0,-1 0,0 1,4 1,4l0 0 2 0 1 -7 1 0 0 -1 -3 0z"/>
   <path class="fil1" d="M18 15c0,0 1,-2 1,-2l0 2 -1 0zm-1 -3l0 0c0,1 -1,5 -1,5l0 0 0 2 2 0 0 -2 0 0 0 0 1 0 1 0 -1 0 0 2c0,0 3,0 3,0l0 -2 0 0 -2 -6c-1,0 -3,0 -3,0l0 1z"/>
   <path class="fil1" d="M26 18c0,0 0,0 1,0l1 0 0 -2 1 0 0 -1 -3 0 0 1c0,0 0,0 0,0 1,1 0,1 -1,1 -1,-1 -1,-2 -1,-2 0,-1 1,-2 1,-2 1,0 1,0 1,1 0,0 0,0 0,0 1,1 2,1 2,1 0,-1 0,-3 0,-3l-1 0 0 0c-1,0 -1,0 -2,0 0,-1 -1,-1 -1,0 -1,0 -2,2 -2,3 0,1 0,1 1,2 0,0 0,1 0,1 1,0 1,1 2,0 1,0 1,0 1,0 0,0 0,0 0,0z"/>
   <path class="fil1" d="M5 12c0,0 0,0 -1,0 -2,-1 -3,1 -2,3 0,0 2,1 2,1 1,0 1,1 0,1 -1,0 -1,-1 -1,-1l-2 0 0 2 2 0 0 -1c0,1 0,1 1,1 1,1 2,0 3,-1 0,-1 0,-2 -1,-2 -1,-1 -2,-1 -2,-2 0,0 1,0 1,0 0,1 0,1 0,1 0,0 0,0 0,0l2 0 0 -3c-1,0 -1,0 -1,1 -1,0 -1,-1 -1,0z"/>
  </g>
 </g>
</svg>
