<?xml version="1.0" encoding="UTF-8"?>
<!DOCTYPE svg PUBLIC "-//W3C//DTD SVG 1.1//EN" "http://www.w3.org/Graphics/SVG/1.1/DTD/svg11.dtd">
<!-- Creator: CorelDRAW X8 -->
<svg xmlns="http://www.w3.org/2000/svg" xml:space="preserve" width="102px" height="30px" version="1.1" style="shape-rendering:geometricPrecision; text-rendering:geometricPrecision; image-rendering:optimizeQuality; fill-rule:evenodd; clip-rule:evenodd"
viewBox="0 0 102 30"
 xmlns:xlink="http://www.w3.org/1999/xlink">
 <defs>
  <style type="text/css">
   <![CDATA[
    .fil0 {fill:#EF154F}
    .fil1 {fill:#FDFDFD}
   ]]>
  </style>
 </defs>
 <g id="Layer_x0020_1">
  <metadata id="CorelCorpID_0Corel-Layer"/>
  <rect class="fil0" width="102.002" height="30.0007"/>
  <g id="_261019534256">
   <path class="fil1" d="M26 21c0,0 0,0 0,0 1,0 1,0 1,0l0 0c0,0 0,0 0,0 -1,0 -1,0 -1,1l0 -1c0,0 0,0 1,0l0 0 0 0c0,0 0,0 0,0 1,0 7,-1 7,-1 0,0 1,1 1,1 0,0 0,0 0,0 0,1 0,0 1,0 1,0 1,0 2,0 3,0 4,0 6,1 1,0 1,0 2,0 0,0 0,1 0,1 0,0 1,0 1,0 0,0 -3,0 -4,0 -6,1 -13,2 -19,4l-3 1c0,0 0,0 0,0l0 1c1,-1 2,-1 3,-1 14,-4 29,-5 43,-3 4,1 8,2 12,3 1,0 2,1 2,1 -1,-1 -4,-2 -6,-3 -5,-1 -11,-2 -17,-3 -1,0 -2,0 -4,0 1,0 1,0 1,0 0,0 1,-1 2,-1 1,0 2,-1 3,-1 2,0 4,0 6,0 1,0 1,0 1,0 0,0 0,0 0,0 0,-1 0,-1 2,-1 0,0 5,1 5,1 1,0 1,0 1,0 0,0 0,0 0,0 0,0 0,0 -1,0 1,0 1,0 1,0 0,0 0,0 1,0 0,0 0,-1 -1,-1 0,0 0,0 0,0 -1,0 -1,0 -1,0 0,-1 0,-1 0,-2 -2,0 -4,0 -6,0 -1,-1 -1,-1 -1,-1 -1,-1 -1,-1 -2,-1 0,-2 0,-1 0,-2 0,0 0,-1 0,-1 1,0 1,0 1,-1l2 -1c1,-1 1,-1 2,-1 0,0 0,-1 1,-1 0,0 0,0 0,0 1,0 2,-1 2,-1 0,0 1,0 1,1 3,2 7,-2 5,-6 0,0 -1,-1 -2,-1 -1,-1 -2,-1 -3,0 0,0 -1,1 -1,1 -1,2 -1,2 -1,3 0,1 -1,2 -2,2 0,0 0,0 0,1 0,0 0,0 0,0 1,-1 1,-1 1,-1 -2,2 -4,3 -6,4 0,1 0,1 0,1 -1,0 -1,1 -1,1 0,-1 1,-1 1,-2 1,0 1,0 2,-1 0,0 0,0 0,0 1,-1 2,-2 3,-2 0,0 0,0 0,0 -1,0 -1,0 -1,0 0,1 -1,1 -1,1 -1,1 -1,1 -2,1 0,1 -1,1 -2,2 0,0 0,1 0,1 0,0 -1,0 -1,0 0,1 0,1 0,1 -3,0 -5,-1 -7,-2 -1,0 -1,-1 -2,-2 -2,-1 -5,-1 -7,0 0,0 -1,1 -1,2 -1,0 0,0 -1,0 -2,1 -4,2 -7,2 0,0 0,0 0,-1 0,0 0,0 0,0 0,0 0,-1 -1,-1 0,-1 -1,-1 -2,-2l-3 -2c0,0 0,0 0,0 0,0 4,3 4,3 1,1 1,1 1,2 0,-1 0,-1 -1,-2l-3 -2c-1,-1 -2,-1 -2,-2 0,0 0,1 0,1 1,0 0,0 1,0 -1,-1 -1,-1 -1,-1 -1,-1 -1,-1 -2,-2 0,-1 1,-1 0,-3 0,0 -1,-1 -2,-1 -2,-1 -4,0 -5,1 -2,3 1,7 4,6 2,0 2,-1 2,-1 2,1 3,1 3,1l5 4c1,0 1,1 1,1 0,0 -1,1 -1,1 0,0 0,1 0,1 -2,1 -1,1 -2,2 -2,0 -4,0 -6,0 0,1 0,1 0,2 -1,0 -1,0 -1,0 -1,0 -1,0 -1,0 -1,0 -1,1 0,1zm40 -1c0,1 0,1 1,1l-2 0 1 -1zm-31 1c0,0 0,0 0,-1l2 1 -2 0zm3 0c1,0 2,0 2,0 1,-1 1,-1 2,-1 3,-1 2,0 3,0 0,1 2,1 2,2 2,0 3,0 4,0 0,0 0,0 0,0l0 0c-1,0 -1,0 -1,0 -2,0 -5,0 -6,-2 0,0 0,0 0,0 -2,0 -2,0 -3,0 -1,1 -2,1 -3,1zm29 -2c2,0 3,0 6,1 -1,0 -2,0 -3,0 -1,-1 -2,0 -3,-1zm-38 1c2,-1 3,-1 6,-1 -1,1 -2,0 -3,1 -1,0 -3,0 -3,0zm28 -1c1,-1 2,0 3,0 1,0 3,0 3,0 -1,0 -5,0 -6,0zm-19 0c0,0 3,0 3,0 1,0 2,-1 3,0 0,0 -5,0 -6,0zm26 -1c-1,0 -1,0 -2,0 0,0 -1,0 -2,0 0,0 -2,0 -2,-1l0 0c-1,0 0,0 -1,0l1 0c1,0 5,1 6,1zm1 2c1,-1 1,-1 2,-2 -1,1 -1,1 -1,2l-1 0zm-30 0c0,-1 0,-1 0,-2 1,0 1,1 1,2l-1 0zm4 -2c0,0 2,0 2,0 2,-1 2,-1 3,-1 0,0 -1,0 -1,1 -1,0 -4,0 -4,0zm28 -1l-1 0 0 0c1,0 1,0 1,1 0,0 0,0 0,-1 0,0 0,0 0,0zm-28 -2c1,0 1,0 2,0 2,0 2,0 3,-1 -1,1 -1,1 -1,1 -1,0 -1,0 -2,1 -1,0 -1,0 -2,0 0,1 -1,1 -1,1 1,-1 1,-1 1,-2zm23 1c-1,-1 -3,-1 -4,-2 0,1 1,1 1,1 0,0 1,0 1,0 2,1 2,0 3,0 0,1 0,1 0,1 0,0 0,0 0,1 0,0 0,0 0,0l-1 -1zm-28 2c0,-1 1,-1 1,-1 0,0 0,0 0,0 0,1 0,1 -1,1zm16 -7c3,-1 5,2 6,4 0,3 -2,6 -5,6 -3,1 -5,-2 -5,-4 -1,-2 0,-3 1,-4 0,-1 1,-2 3,-2zm24 -4c0,1 0,1 1,1 0,0 1,0 1,1 -1,0 -2,-1 -3,-1l1 -1zm-48 1c1,0 1,0 2,-1l0 1c0,0 -1,1 -3,1l1 -1zm45 0c0,0 0,0 0,0l2 -2c0,0 0,0 0,0 0,0 -2,2 -2,2zm-40 0c-1,0 -1,-1 -2,-1 0,0 -1,-1 -1,-1 1,0 0,0 1,0l1 1c1,1 1,1 1,1zm48 -3c0,0 0,-1 0,-1 -1,-1 -1,-1 -1,-1 1,0 1,1 1,2zm-57 0c0,-1 1,-2 2,-2 -1,0 -1,1 -1,2l-1 0zm50 1c0,-2 1,-4 2,-4 0,1 -1,1 -1,4 0,0 0,0 -1,0zm-44 0c0,-1 0,-2 0,-3 0,0 0,0 -1,-1 0,0 0,0 0,0 0,0 0,0 0,0 1,0 2,2 2,4 0,0 0,0 0,0l-1 0z"/>
   <g>
    <path class="fil1" d="M54 16c0,3 -2,4 -4,4 -2,-1 -4,-3 -3,-5 0,-2 2,-4 4,-3 2,0 4,2 3,4zm-4 -5c-2,0 -5,3 -4,6 0,2 2,4 5,4 3,-1 5,-3 5,-6 -1,-2 -3,-4 -6,-4z"/>
    <path class="fil1" d="M54 17c-3,1 -5,-3 -3,-5 -1,0 -2,1 -3,2 -2,2 0,6 3,5 1,0 3,-1 3,-2z"/>
   </g>
  </g>
 </g>
</svg>
